<svg width="282" height="41" viewBox="0 0 282 41" fill="none" xmlns="http://www.w3.org/2000/svg">
<path d="M139.606 5.04445V38.0982L136.004 41V13.5033H129.223L139.606 5.04445ZM264.549 0C267.566 0 270.367 0.45489 272.953 1.36467C275.44 2.22427 277.586 3.19027 279.39 4.26267L279.705 4.45331L275.969 11.564C275.629 11.2853 275.148 10.9664 274.526 10.6075L274.173 10.4075L273.792 10.1999L273.384 9.98396C272.235 9.36133 270.87 8.83465 269.289 8.40393C267.706 7.92458 266.06 7.68242 264.405 7.68534C259.904 7.68534 257.654 8.95442 257.654 11.4926C257.654 12.9766 258.468 14.03 260.096 14.6526L260.467 14.7872L260.861 14.924L261.278 15.063L261.72 15.2037L262.185 15.3471L262.673 15.4926C262.756 15.5175 262.84 15.5421 262.925 15.5663L263.449 15.7146L263.996 15.8662L264.566 16.0189L265.159 16.1744L265.777 16.3321L266.746 16.5727L267.422 16.7359C270.247 17.4538 272.69 18.2678 274.749 19.1779C276.768 20.0496 278.325 21.2073 279.421 22.6511L279.561 22.8412C280.71 24.3256 281.285 26.2888 281.285 28.7306C281.285 31.6995 280.519 34.0939 278.986 35.9138C277.502 37.6854 275.539 38.9783 273.097 39.7925C270.654 40.5583 268.02 40.9412 265.195 40.9412C261.939 40.9412 258.707 40.4863 255.499 39.5765C252.444 38.7104 249.714 37.54 247.31 36.0654L246.952 35.8418L250.83 28.2999C251.453 28.9225 252.482 29.6168 253.919 30.3826C255.403 31.1492 257.127 31.7956 259.09 32.3219C261.053 32.8493 263.136 33.1129 265.339 33.1125C269.745 33.1125 271.947 31.9392 271.947 29.5926C271.947 28.0126 270.918 26.8874 268.859 26.2172L268.364 26.043L267.844 25.8667L267.299 25.6876L266.729 25.5052L266.135 25.3206L265.516 25.1327L265.197 25.0382L264.541 24.8465L263.859 24.652L263.153 24.4547L262.422 24.2548L261.279 23.9499L260.886 23.8466C256.768 22.7932 253.703 21.4525 251.692 19.8245C249.729 18.1482 248.747 15.7538 248.747 12.6413C248.747 9.86438 249.442 7.54213 250.83 5.67459C252.266 3.80668 254.182 2.39403 256.576 1.43664C259.018 0.47888 261.676 0 264.549 0ZM197.939 0.07142C200.978 0.07142 203.752 0.625016 206.26 1.73221L206.559 1.86736C209.145 3.01667 211.348 4.57289 213.167 6.53603C215.034 8.45155 216.47 10.6304 217.475 13.0726C218.481 15.5144 218.984 18.0044 218.985 20.5426C218.985 23.176 218.458 25.7139 217.405 28.1565C216.351 30.5507 214.866 32.7054 212.95 34.6205C211.083 36.4885 208.857 37.9729 206.272 39.0739C203.686 40.1748 200.861 40.7255 197.796 40.7259C194.636 40.7259 191.763 40.1752 189.177 39.0739C186.591 37.9249 184.364 36.3927 182.496 34.4772C180.628 32.514 179.192 30.3114 178.186 27.8692C177.182 25.4266 176.678 22.9126 176.678 20.3272C176.678 17.6935 177.204 15.1555 178.258 12.7133C179.253 10.398 180.677 8.29173 182.454 6.50526L182.713 6.2487C184.628 4.33354 186.877 2.82493 189.463 1.72397C192.049 0.622269 194.874 0.07142 197.939 0.07142ZM24.6366 0.287877L42.0905 40.4391H32.8971L28.8745 31.0292H13.288L9.26592 40.4385H0L17.5254 0.287328L24.6366 0.287877ZM76.048 0.287877L87.1104 14.5092L98.1711 0.287328H107.58L91.7065 20.6145L107.078 40.4385H97.6684L87.1093 26.7918L76.6232 40.4385H67.0699L82.5131 20.6145L66.5672 0.287328L76.048 0.287877ZM146.194 0.103284V26.9709H153.166L142.598 35.6424V2.60628L146.194 0.103284ZM197.797 7.82928C195.163 7.82928 192.912 8.45173 191.044 9.69663C189.224 10.9415 187.835 12.5217 186.878 14.4373C185.92 16.3528 185.441 18.3401 185.441 20.3992C185.442 22.5539 185.945 24.6128 186.951 26.5759C187.956 28.4914 189.368 30.0477 191.187 31.2446C193.055 32.4422 195.282 33.0409 197.867 33.0405C200.501 33.0405 202.728 32.4179 204.547 31.1726C206.369 29.8799 207.756 28.2757 208.713 26.36C209.671 24.3969 210.151 22.3859 210.151 20.3272C210.151 18.1725 209.648 16.1374 208.643 14.2219C207.638 12.3064 206.201 10.774 204.332 9.62466C202.512 8.42774 200.334 7.82928 197.797 7.82928ZM21.1172 10.8448L15.2273 23.4878H26.7918L21.1172 10.8448Z" fill="#5A29E4"/>
</svg>
