<svg width="56" height="56" viewBox="0 0 56 56" fill="none" xmlns="http://www.w3.org/2000/svg">
<mask id="mask0_681_19" style="mask-type:luminance" maskUnits="userSpaceOnUse" x="0" y="0" width="56" height="56">
<path d="M56 0H0V56H56V0Z" fill="white"/>
</mask>
<g mask="url(#mask0_681_19)">
<path d="M0 0H56V56H0V0Z" fill="#F7DF1E"/>
<path d="M14.7245 46.7976L19.0098 44.2042C19.8366 45.6699 20.5888 46.9103 22.3928 46.9103C24.1219 46.9103 25.2125 46.2339 25.2125 43.6027V25.7095H30.4749V43.6772C30.4749 49.1277 27.2798 51.6088 22.6182 51.6088C18.4085 51.6088 15.965 49.429 14.7245 46.7976ZM33.3333 46.2338L37.6182 43.7528C38.7462 45.5949 40.2123 46.9482 42.8059 46.9482C44.9866 46.9482 46.377 45.8579 46.377 44.3543C46.377 42.5499 44.9485 41.9107 42.5427 40.8586L41.2274 40.2943C37.4306 38.6783 34.912 36.6483 34.912 32.3631C34.912 28.4159 37.9192 25.4085 42.6182 25.4085C45.9637 25.4085 48.3696 26.5739 50.0986 29.6187L46.001 32.2503C45.0986 30.634 44.1216 29.9951 42.6179 29.9951C41.0766 29.9951 40.0992 30.9724 40.0992 32.2503C40.0992 33.829 41.0766 34.4685 43.332 35.4458L44.6475 36.0096C49.121 37.9269 51.6394 39.8815 51.6394 44.2792C51.6394 49.016 47.9181 51.6095 42.9186 51.6095C38.0318 51.6095 34.8744 49.2787 33.3333 46.2338Z" fill="white"/>
</g>
</svg>
