<svg width="63" height="56" viewBox="0 0 63 56" fill="none" xmlns="http://www.w3.org/2000/svg">
<path d="M51.7986 18.1507C51.1281 17.9209 50.4519 17.708 49.7707 17.5122C49.8852 17.0451 49.9905 16.5836 50.084 16.1302C51.6192 8.68516 50.6156 2.68727 47.1877 0.712475C43.9012 -1.18069 38.5262 0.793365 33.0979 5.51324C32.5629 5.97924 32.0398 6.45867 31.529 6.95107C31.1871 6.62364 30.8392 6.30256 30.4854 5.98801C24.7962 0.941376 19.0937 -1.18561 15.6695 0.79484C12.3859 2.69391 11.4136 8.33234 12.7956 15.3882C12.9331 16.087 13.0884 16.7822 13.2613 17.4731C12.4541 17.7023 11.6752 17.9462 10.9298 18.2058C4.25964 20.5292 0 24.1703 0 27.947C0 31.8476 4.57291 35.7601 11.5201 38.1325C12.0682 38.3198 12.6374 38.4968 13.2234 38.6648C13.0376 39.4089 12.8726 40.1581 12.7287 40.9115C11.4111 47.8449 12.44 53.3501 15.7148 55.2371C19.0971 57.1858 24.774 55.183 30.3015 50.3554C30.7497 49.9629 31.1881 49.5594 31.6162 49.145C32.1693 49.6782 32.7371 50.1959 33.3191 50.6974C38.6736 55.3005 43.9617 57.1593 47.2333 55.2671C50.6124 53.3127 51.7107 47.3986 50.2848 40.2034C50.1725 39.6397 50.0465 39.0788 49.9071 38.5212C50.3057 38.4032 50.697 38.2817 51.0785 38.1553C58.3008 35.7648 63 31.8998 63 27.947C63 24.1565 58.6028 20.4909 51.7986 18.1507ZM50.2322 35.6032C49.8876 35.7171 49.5342 35.827 49.174 35.9339C48.3766 33.4121 47.3007 30.7307 45.9838 27.96C47.2404 25.2555 48.275 22.6083 49.0499 20.1029C49.6944 20.2893 50.3198 20.4857 50.9227 20.693C56.7527 22.6983 60.3087 25.6627 60.3087 27.947C60.3087 30.3801 56.4682 33.5387 50.2322 35.6032ZM47.6447 40.7256C48.2752 43.9071 48.3651 46.7837 47.9474 49.0327C47.5724 51.0534 46.8179 52.4005 45.8847 52.9402C43.8994 54.0884 39.6536 52.596 35.0745 48.6592C34.5332 48.1929 34.005 47.7116 33.4904 47.216C35.2657 45.2763 37.0398 43.0215 38.7713 40.5171C41.817 40.2472 44.6943 39.8056 47.3036 39.203C47.4294 39.7077 47.5432 40.2154 47.6447 40.7256ZM21.4781 52.7418C19.5384 53.426 17.9934 53.4457 17.0595 52.9078C15.0723 51.7628 14.2461 47.3423 15.373 41.413C15.5069 40.7124 15.6603 40.0156 15.8329 39.3234C18.4135 39.8938 21.2699 40.3039 24.3227 40.5513C26.066 43.0018 27.8913 45.2542 29.7308 47.2265C29.3399 47.6045 28.9397 47.9727 28.5306 48.331C26.0862 50.4656 23.6368 51.9801 21.4781 52.7418ZM12.3908 35.5882C9.31883 34.5391 6.78185 33.1758 5.04295 31.6881C3.48026 30.3513 2.69153 29.0239 2.69153 27.947C2.69153 25.655 6.11149 22.7317 11.8157 20.7449C12.508 20.5039 13.2325 20.2765 13.9843 20.0631C14.7728 22.625 15.8068 25.3037 17.0548 28.0124C15.7906 30.7612 14.7418 33.4827 13.9456 36.0748C13.4235 35.9254 12.905 35.7631 12.3908 35.5882ZM15.437 14.8716C14.253 8.82653 15.0393 4.26646 17.0181 3.12196C19.1257 1.90296 23.7862 3.64098 28.6985 7.9987C29.0188 8.28351 29.3339 8.57408 29.6437 8.87029C27.8133 10.834 26.0047 13.0697 24.2769 15.5057C21.3139 15.7801 18.4777 16.2207 15.8701 16.811C15.7094 16.1684 15.565 15.5215 15.437 14.8716ZM42.6124 21.5759C41.9965 20.513 41.3577 19.4635 40.6965 18.4281C42.7066 18.682 44.6325 19.0191 46.4411 19.4312C45.8982 21.17 45.2215 22.9876 44.4248 24.8513C43.8426 23.7476 43.2383 22.6555 42.6124 21.5759ZM31.5303 10.792C32.7716 12.1356 34.0148 13.6357 35.2377 15.2633C32.757 15.1462 30.2723 15.1457 27.7916 15.2618C29.0157 13.6492 30.2695 12.1511 31.5303 10.792ZM20.3771 21.5943C19.759 22.6653 19.1659 23.7505 18.5985 24.8491C17.815 22.9921 17.1444 21.166 16.5968 19.4027C18.3943 19.0009 20.3111 18.6725 22.3084 18.4231C21.6399 19.4649 20.9959 20.5224 20.3771 21.5943ZM22.3657 37.6621C20.3022 37.432 18.3566 37.1205 16.5596 36.7296C17.1158 34.9347 17.8012 33.0698 18.6017 31.173C19.1714 32.2724 19.7669 33.3583 20.3876 34.4297C21.026 35.5312 21.687 36.6101 22.3657 37.6621ZM31.6046 45.2913C30.3288 43.9165 29.0565 42.3953 27.814 40.7593C29.0204 40.8065 30.2501 40.8306 31.5 40.8306C32.7841 40.8306 34.0535 40.8018 35.3029 40.7463C34.0761 42.4118 32.8375 43.9351 31.6046 45.2913ZM44.4502 31.0761C45.2923 32.9939 46.0021 34.8489 46.5656 36.613C44.7391 37.0295 42.7669 37.3649 40.6889 37.6139C41.3548 36.5593 41.9996 35.4915 42.6229 34.4113C43.2567 33.3133 43.866 32.2013 44.4502 31.0761ZM40.2917 33.0679C39.3374 34.7241 38.3294 36.3489 37.2694 37.9397C35.3998 38.0732 33.4685 38.1421 31.5 38.1421C29.5394 38.1421 27.6324 38.0811 25.796 37.9621C24.7084 36.375 23.6812 34.7473 22.7167 33.0826C21.7567 31.4268 20.8603 29.735 20.0288 28.0112C20.8582 26.2869 21.7521 24.5944 22.7088 22.9372L22.7085 22.9375C23.6649 21.2799 24.6839 19.6592 25.7633 18.0789C27.6368 17.9373 29.5581 17.8636 31.4998 17.8636C33.4503 17.8636 35.3743 17.9381 37.2473 18.0807C38.3158 19.6586 39.3283 21.2737 40.2828 22.923C41.2427 24.5765 42.1485 26.2607 42.9987 27.9731C42.1572 29.7029 41.2543 31.4023 40.2917 33.0679ZM45.8436 3.0418C47.9531 4.25736 48.7736 9.15918 47.4481 15.5873C47.3613 16.0062 47.267 16.4234 47.1651 16.8388C44.5511 16.2359 41.7129 15.7877 38.7413 15.5092C37.0103 13.0463 35.2165 10.8072 33.4158 8.86882C33.8878 8.41434 34.3709 7.97164 34.8648 7.54114C39.516 3.49739 43.863 1.90074 45.8436 3.0418ZM31.5 22.3265C34.6069 22.3265 37.1257 24.8429 37.1257 27.947C37.1257 31.051 34.6069 33.5675 31.5 33.5675C28.3931 33.5675 25.8743 31.051 25.8743 27.947C25.8743 24.8429 28.3931 22.3265 31.5 22.3265Z" fill="#00D8FF"/>
</svg>
