<svg width="84" height="51" viewBox="0 0 84 51" fill="none" xmlns="http://www.w3.org/2000/svg">
<path d="M42 0C30.8001 0 23.7999 5.66678 21 17C25.2 11.3332 30.0999 9.20822 35.7 10.625C38.895 11.4332 41.1787 13.779 43.7066 16.3751C47.8245 20.6049 52.5902 25.5 63 25.5C74.1999 25.5 81.2001 19.8332 84 8.5C79.8 14.1668 74.9001 16.2918 69.3 14.875C66.105 14.0668 63.8213 11.721 61.2934 9.12488C57.1755 4.89514 52.4098 0 42 0ZM21 25.5C9.80011 25.5 2.79989 31.1668 0 42.5C4.2 36.8332 9.09989 34.7082 14.7 36.125C17.895 36.9332 20.1787 39.279 22.7066 41.8751C26.8245 46.1049 31.5902 51 42 51C53.1999 51 60.2001 45.3332 63 34C58.8 39.6668 53.9001 41.7918 48.3 40.375C45.105 39.5668 42.8213 37.221 40.2934 34.6249C36.1755 30.3951 31.4098 25.5 21 25.5Z" fill="url(#paint0_linear_702_23)"/>
<defs>
<linearGradient id="paint0_linear_702_23" x1="-2.33324" y1="16.3201" x2="70.6409" y2="57.8999" gradientUnits="userSpaceOnUse">
<stop stop-color="#2298BD"/>
<stop offset="1" stop-color="#0ED7B5"/>
</linearGradient>
</defs>
</svg>
