<svg width="66" height="61" viewBox="0 0 66 61" fill="none" xmlns="http://www.w3.org/2000/svg">
<rect y="38" width="66" height="23" rx="2" fill="url(#paint0_radial_728_2)"/>
<mask id="mask0_728_2" style="mask-type:luminance" maskUnits="userSpaceOnUse" x="5" y="0" width="56" height="56">
<path d="M61 0H5V56H61V0Z" fill="white"/>
</mask>
<g mask="url(#mask0_728_2)">
<path d="M14.9182 20.5625H58.5238V52.7931H14.9182V20.5625Z" fill="white"/>
<path d="M5.65625 27.9606V55.3043H60.3438V0.616821H5.65625V27.9606ZM49.7256 25.7731C51.0355 26.077 52.2259 26.7621 53.1469 27.7418C53.6538 28.2697 54.0946 28.8574 54.4594 29.4918C54.4594 29.5618 52.0969 31.1587 50.6575 32.0512C50.605 32.0862 50.395 31.8587 50.1631 31.5131C49.9004 31.0597 49.527 30.6802 49.0779 30.4102C48.6289 30.1401 48.1187 29.9882 47.595 29.9687C45.9369 29.8549 44.8694 30.7256 44.8781 32.1562C44.8648 32.5123 44.9464 32.8656 45.1144 33.1799C45.4775 33.9368 46.1556 34.3874 48.2819 35.3062C52.1975 36.9906 53.8731 38.1018 54.9144 39.6812C56.0781 41.4312 56.3363 44.2574 55.5488 46.3487C54.6738 48.6237 52.53 50.1681 49.4981 50.6799C48.1134 50.8386 46.7142 50.8239 45.3331 50.6362C43.2163 50.2873 41.2665 49.271 39.7681 47.7356C39.265 47.1799 38.285 45.7318 38.3463 45.6268C38.5057 45.5078 38.6738 45.401 38.8494 45.3074L40.875 44.1874L42.4456 43.2774L42.7737 43.7631C43.3277 44.5551 44.0324 45.23 44.8475 45.7493C46.5975 46.6681 48.9862 46.5412 50.1675 45.4781C50.5641 45.0885 50.8115 44.5722 50.8667 44.019C50.9218 43.4658 50.7812 42.9108 50.4694 42.4506C50.0319 41.8424 49.1569 41.3306 46.7112 40.2631C43.8894 39.0468 42.6731 38.2943 41.5619 37.0956C40.8684 36.3044 40.3562 35.3711 40.0612 34.3612C39.8414 33.2073 39.8089 32.0255 39.965 30.8612C40.5469 28.1356 42.59 26.2324 45.5737 25.6681C46.9556 25.4974 48.3552 25.5357 49.7256 25.7818V25.7731ZM36.8894 28.0656V30.3056H29.7887V50.5312H24.7531V30.3012H17.635V28.1137C17.6127 27.3593 17.6302 26.6043 17.6875 25.8518C17.7225 25.8124 22.0625 25.8124 27.3125 25.8124H36.8631L36.8894 28.0656Z" fill="#007ACC"/>
</g>
<defs>
<radialGradient id="paint0_radial_728_2" cx="0" cy="0" r="1" gradientUnits="userSpaceOnUse" gradientTransform="translate(33 49) rotate(90) scale(13.5 45.4708)">
<stop stop-color="#0067AC"/>
<stop offset="1" stop-color="#005792" stop-opacity="0"/>
</radialGradient>
</defs>
</svg>
