<svg width="41" height="41" viewBox="0 0 41 41" fill="none" xmlns="http://www.w3.org/2000/svg">
<path d="M40.8695 6.06853L21.6069 40.4636C21.5165 40.6254 21.3846 40.7603 21.2247 40.8544C21.0649 40.9485 20.8829 40.9985 20.6974 40.9992C20.5118 41 20.3294 40.9514 20.1688 40.8586C20.0083 40.7658 19.8753 40.632 19.7835 40.471L0.139818 6.07146C0.041057 5.89886 -0.00635493 5.70171 0.00314591 5.50315C0.0126468 5.30459 0.0786665 5.11285 0.193458 4.95044C0.308249 4.78802 0.467049 4.66167 0.651223 4.58621C0.835398 4.51076 1.03731 4.48932 1.23325 4.52441L20.5164 7.96685C20.639 7.98934 20.7646 7.98934 20.8872 7.96685L39.7673 4.53027C39.9625 4.49465 40.1638 4.51518 40.3478 4.58946C40.5317 4.66374 40.6907 4.78871 40.8063 4.94979C40.9218 5.11088 40.9891 5.30144 41.0003 5.49926C41.0115 5.69708 40.9661 5.89547 40.8695 6.06853Z" fill="url(#paint0_linear_702_31)"/>
<path d="M29.7006 0.010588L15.4479 2.79879C15.3341 2.82173 15.2311 2.88149 15.1548 2.96881C15.0785 3.05612 15.0331 3.16613 15.0257 3.28178L14.1492 18.0702C14.1444 18.1513 14.1586 18.2325 14.1907 18.3072C14.2227 18.3819 14.2718 18.4481 14.334 18.5005C14.3962 18.5529 14.4698 18.5902 14.5489 18.6092C14.628 18.6283 14.7105 18.6287 14.7898 18.6103L18.7575 17.6955C18.843 17.6758 18.932 17.6779 19.0165 17.7015C19.101 17.7252 19.1782 17.7696 19.2409 17.8308C19.3037 17.8921 19.35 17.968 19.3757 18.0518C19.4013 18.1356 19.4055 18.2245 19.3878 18.3103L18.2093 24.0755C18.1911 24.1642 18.1964 24.2562 18.2245 24.3423C18.2527 24.4284 18.3027 24.5057 18.3698 24.5667C18.437 24.6277 18.5188 24.6702 18.6073 24.69C18.6958 24.7099 18.788 24.7064 18.8748 24.6799L21.3255 23.9364C21.4124 23.9099 21.5047 23.9064 21.5934 23.9263C21.682 23.9462 21.764 23.9888 21.8312 24.05C21.8983 24.1111 21.9484 24.1887 21.9764 24.275C22.0044 24.3614 22.0094 24.4535 21.9909 24.5424L20.1162 33.5978C19.999 34.1642 20.7538 34.473 21.069 33.9886L21.2786 33.6636L32.8945 10.5165C32.9381 10.4293 32.9564 10.3316 32.9473 10.2345C32.9382 10.1375 32.9022 10.0449 32.8431 9.96723C32.7841 9.88957 32.7045 9.82995 32.6134 9.7951C32.5222 9.76025 32.4231 9.75156 32.3272 9.77002L28.2422 10.556C28.1543 10.5728 28.0635 10.5668 27.9786 10.5385C27.8936 10.5103 27.8174 10.4608 27.7571 10.3947C27.6968 10.3286 27.6545 10.2482 27.6342 10.1611C27.6139 10.074 27.6164 9.98322 27.6413 9.89735L30.306 0.667754C30.3311 0.581611 30.3336 0.490461 30.3132 0.403086C30.2928 0.31571 30.2502 0.235051 30.1895 0.168877C30.1288 0.102704 30.0521 0.0532457 29.9668 0.0252657C29.8814 -0.00271429 29.7902 -0.00827311 29.7021 0.00912445" fill="url(#paint1_linear_702_31)"/>
<defs>
<linearGradient id="paint0_linear_702_31" x1="-0.340179" y1="3.29477" x2="23.5874" y2="35.8371" gradientUnits="userSpaceOnUse">
<stop stop-color="#41D1FF"/>
<stop offset="1" stop-color="#BD34FE"/>
</linearGradient>
<linearGradient id="paint1_linear_702_31" x1="19.4082" y1="0.766961" x2="23.7325" y2="30.4737" gradientUnits="userSpaceOnUse">
<stop stop-color="#FFEA83"/>
<stop offset="0.083" stop-color="#FFDD35"/>
<stop offset="1" stop-color="#FFA800"/>
</linearGradient>
</defs>
</svg>
